<svg viewBox="0 0 225 182" fill="none" xmlns="http://www.w3.org/2000/svg" role="img">
<path d="M58.243 47.8182V45.6364L95.6067 21.3636V23.9545L60.2885 46.8636L60.6976 46.1818V47.2727L60.2885 46.5909L95.6067 69.5V72.0909L58.243 47.8182ZM123.939 0.909086L101.439 84.5H99.1207L121.621 0.909086H123.939ZM164.723 47.8182L127.359 72.0909V69.5L162.677 46.5909L162.268 47.2727V46.1818L162.677 46.8636L127.359 23.9545V21.3636L164.723 45.6364V47.8182Z" class="accent-color"/>
<path d="M0.634656 95.4545H10.9528L24.771 129.182H25.3165L39.1347 95.4545H49.4528V142H41.3619V110.023H40.9301L28.0665 141.864H22.021L9.15738 109.955H8.72557V142H0.634656V95.4545ZM62.5865 95.4545V142H54.1547V95.4545H62.5865ZM107.078 111.159H98.5781C98.3356 109.765 97.8887 108.53 97.2372 107.455C96.5856 106.364 95.775 105.439 94.8053 104.682C93.8356 103.924 92.7296 103.356 91.4872 102.977C90.2599 102.583 88.9341 102.386 87.5099 102.386C84.9796 102.386 82.7372 103.023 80.7826 104.295C78.8281 105.553 77.2978 107.402 76.1917 109.841C75.0856 112.265 74.5326 115.227 74.5326 118.727C74.5326 122.288 75.0856 125.288 76.1917 127.727C77.3129 130.152 78.8432 131.985 80.7826 133.227C82.7372 134.455 84.972 135.068 87.4872 135.068C88.8811 135.068 90.1841 134.886 91.3962 134.523C92.6235 134.144 93.722 133.591 94.6917 132.864C95.6766 132.136 96.5023 131.242 97.169 130.182C97.8508 129.121 98.3205 127.909 98.5781 126.545L107.078 126.591C106.76 128.803 106.07 130.879 105.01 132.818C103.964 134.758 102.593 136.47 100.896 137.955C99.1993 139.424 97.2144 140.576 94.9417 141.409C92.669 142.227 90.1462 142.636 87.3735 142.636C83.2826 142.636 79.6311 141.689 76.419 139.795C73.2069 137.902 70.6766 135.167 68.8281 131.591C66.9796 128.015 66.0553 123.727 66.0553 118.727C66.0553 113.712 66.9872 109.424 68.8508 105.864C70.7144 102.288 73.2523 99.553 76.4644 97.6591C79.6766 95.7651 83.3129 94.8182 87.3735 94.8182C89.9644 94.8182 92.3735 95.1818 94.6008 95.9091C96.8281 96.6364 98.8129 97.7045 100.555 99.1136C102.298 100.508 103.73 102.22 104.851 104.25C105.987 106.265 106.73 108.568 107.078 111.159ZM110.32 142V95.4545H118.751V115.159H140.32V95.4545H148.774V142H140.32V122.227H118.751V142H110.32ZM159.442 142H150.442L166.828 95.4545H177.237L193.646 142H184.646L172.215 105H171.851L159.442 142ZM159.737 123.75H184.283V130.523H159.737V123.75ZM195.297 142V95.4545H203.729V134.932H224.229V142H195.297Z" fill="currentColor"/>
<path d="M70.6185 181.426C68.4404 181.426 66.5702 180.948 65.0077 179.991C63.4546 179.035 62.2567 177.714 61.4139 176.028C60.5806 174.333 60.1639 172.383 60.1639 170.176C60.1639 167.96 60.5901 166.005 61.4423 164.31C62.2946 162.605 63.4973 161.279 65.0503 160.332C66.6128 159.376 68.4594 158.898 70.5901 158.898C72.3609 158.898 73.9281 159.224 75.2918 159.878C76.6649 160.522 77.7586 161.436 78.573 162.619C79.3874 163.794 79.8514 165.167 79.9651 166.739H75.0503C74.8514 165.687 74.3779 164.812 73.6298 164.111C72.8912 163.401 71.9016 163.045 70.6611 163.045C69.6099 163.045 68.6866 163.33 67.8912 163.898C67.0957 164.456 66.4755 165.261 66.0304 166.312C65.5948 167.364 65.377 168.623 65.377 170.091C65.377 171.578 65.5948 172.856 66.0304 173.926C66.466 174.987 67.0768 175.806 67.8628 176.384C68.6582 176.952 69.591 177.236 70.6611 177.236C71.4187 177.236 72.0957 177.094 72.6923 176.81C73.2984 176.516 73.805 176.095 74.2122 175.545C74.6194 174.996 74.8988 174.329 75.0503 173.543H79.9651C79.8419 175.086 79.3874 176.455 78.6014 177.648C77.8154 178.831 76.7454 179.759 75.3912 180.432C74.037 181.095 72.4461 181.426 70.6185 181.426ZM90.9044 181.426C88.7737 181.426 86.9271 180.957 85.3646 180.02C83.8021 179.082 82.59 177.771 81.7283 176.085C80.876 174.4 80.4499 172.43 80.4499 170.176C80.4499 167.922 80.876 165.948 81.7283 164.253C82.59 162.558 83.8021 161.241 85.3646 160.304C86.9271 159.366 88.7737 158.898 90.9044 158.898C93.0351 158.898 94.8817 159.366 96.4442 160.304C98.0067 161.241 99.2141 162.558 100.066 164.253C100.928 165.948 101.359 167.922 101.359 170.176C101.359 172.43 100.928 174.4 100.066 176.085C99.2141 177.771 98.0067 179.082 96.4442 180.02C94.8817 180.957 93.0351 181.426 90.9044 181.426ZM90.9328 177.307C92.0881 177.307 93.054 176.99 93.8305 176.355C94.6071 175.711 95.1847 174.849 95.5635 173.77C95.9518 172.69 96.1459 171.488 96.1459 170.162C96.1459 168.827 95.9518 167.619 95.5635 166.54C95.1847 165.451 94.6071 164.584 93.8305 163.94C93.054 163.296 92.0881 162.974 90.9328 162.974C89.7491 162.974 88.7643 163.296 87.9783 163.94C87.2018 164.584 86.6194 165.451 86.2311 166.54C85.8523 167.619 85.6629 168.827 85.6629 170.162C85.6629 171.488 85.8523 172.69 86.2311 173.77C86.6194 174.849 87.2018 175.711 87.9783 176.355C88.7643 176.99 89.7491 177.307 90.9328 177.307ZM111.02 181.384C109.306 181.384 107.772 180.943 106.418 180.062C105.063 179.182 103.993 177.903 103.207 176.227C102.421 174.551 102.028 172.515 102.028 170.119C102.028 167.695 102.426 165.65 103.222 163.983C104.027 162.307 105.111 161.043 106.474 160.19C107.838 159.329 109.358 158.898 111.034 158.898C112.313 158.898 113.364 159.116 114.188 159.551C115.011 159.977 115.665 160.493 116.148 161.099C116.631 161.696 117.005 162.259 117.27 162.79H117.483V151.909H122.639V181H117.582V177.562H117.27C117.005 178.093 116.621 178.656 116.119 179.253C115.617 179.84 114.955 180.342 114.131 180.759C113.307 181.175 112.27 181.384 111.02 181.384ZM112.455 177.165C113.544 177.165 114.472 176.871 115.239 176.284C116.006 175.687 116.588 174.859 116.986 173.798C117.384 172.738 117.582 171.502 117.582 170.091C117.582 168.68 117.384 167.454 116.986 166.412C116.598 165.37 116.02 164.561 115.253 163.983C114.495 163.405 113.563 163.116 112.455 163.116C111.309 163.116 110.352 163.415 109.585 164.011C108.818 164.608 108.241 165.432 107.852 166.483C107.464 167.534 107.27 168.737 107.27 170.091C107.27 171.455 107.464 172.671 107.852 173.741C108.25 174.802 108.832 175.64 109.599 176.256C110.376 176.862 111.328 177.165 112.455 177.165ZM134.978 181.426C132.79 181.426 130.901 180.972 129.31 180.062C127.729 179.144 126.512 177.847 125.66 176.17C124.807 174.485 124.381 172.501 124.381 170.219C124.381 167.974 124.807 166.005 125.66 164.31C126.521 162.605 127.724 161.279 129.267 160.332C130.811 159.376 132.624 158.898 134.708 158.898C136.053 158.898 137.321 159.116 138.515 159.551C139.717 159.977 140.778 160.64 141.696 161.54C142.624 162.439 143.354 163.585 143.884 164.977C144.414 166.36 144.679 168.008 144.679 169.92V171.497H126.796V168.031H139.75C139.741 167.046 139.528 166.17 139.111 165.403C138.695 164.627 138.112 164.016 137.364 163.571C136.625 163.126 135.764 162.903 134.779 162.903C133.728 162.903 132.804 163.159 132.009 163.67C131.213 164.172 130.593 164.835 130.148 165.659C129.713 166.473 129.49 167.368 129.481 168.344V171.369C129.481 172.638 129.713 173.727 130.177 174.636C130.641 175.536 131.289 176.227 132.123 176.71C132.956 177.184 133.931 177.42 135.049 177.42C135.797 177.42 136.474 177.316 137.08 177.108C137.686 176.89 138.212 176.573 138.657 176.156C139.102 175.74 139.438 175.223 139.665 174.608L144.466 175.148C144.163 176.417 143.586 177.525 142.733 178.472C141.891 179.409 140.811 180.138 139.495 180.659C138.178 181.17 136.673 181.426 134.978 181.426ZM163.474 164.949L158.786 165.46C158.654 164.987 158.422 164.542 158.09 164.125C157.768 163.708 157.333 163.372 156.784 163.116C156.234 162.861 155.562 162.733 154.766 162.733C153.696 162.733 152.797 162.965 152.068 163.429C151.348 163.893 150.993 164.494 151.002 165.233C150.993 165.867 151.225 166.384 151.698 166.781C152.181 167.179 152.977 167.506 154.085 167.761L157.806 168.557C159.871 169.002 161.405 169.707 162.409 170.673C163.422 171.639 163.933 172.903 163.943 174.466C163.933 175.839 163.531 177.051 162.735 178.102C161.949 179.144 160.855 179.958 159.454 180.545C158.052 181.133 156.443 181.426 154.624 181.426C151.954 181.426 149.804 180.867 148.176 179.75C146.547 178.623 145.576 177.056 145.264 175.048L150.278 174.565C150.505 175.55 150.988 176.294 151.727 176.795C152.465 177.297 153.427 177.548 154.61 177.548C155.832 177.548 156.812 177.297 157.551 176.795C158.299 176.294 158.673 175.673 158.673 174.935C158.673 174.31 158.431 173.794 157.948 173.386C157.475 172.979 156.736 172.667 155.732 172.449L152.011 171.668C149.918 171.232 148.37 170.498 147.366 169.466C146.362 168.424 145.865 167.108 145.874 165.517C145.865 164.172 146.23 163.008 146.968 162.023C147.716 161.028 148.753 160.261 150.079 159.722C151.414 159.172 152.953 158.898 154.695 158.898C157.252 158.898 159.265 159.442 160.732 160.531C162.21 161.62 163.123 163.093 163.474 164.949Z" class="accent-color"/>
</svg>